<svg xmlns="http://www.w3.org/2000/svg" viewBox="0 0 500 500"><g id="freepik--background-simple--inject-3"><path d="M324.18,23.36S251.45-2.51,180.05,38.67,72.62,161.59,41.69,227.06,28.56,359.14,83.06,389.51s91.56-14.4,168-16.58,97,8.75,160.47-34.44,74.92-145.2,24.87-220.68S324.18,23.36,324.18,23.36Z" style="fill:#FF521C"></path><path d="M324.18,23.36S251.45-2.51,180.05,38.67,72.62,161.59,41.69,227.06,28.56,359.14,83.06,389.51s91.56-14.4,168-16.58,97,8.75,160.47-34.44,74.92-145.2,24.87-220.68S324.18,23.36,324.18,23.36Z" style="fill:#fff;opacity:0.7000000000000001"></path></g><g id="freepik--Device--inject-3"><rect x="156.87" y="50.04" width="200.26" height="378.27" rx="7.67" style="fill:#263238;stroke:#263238;stroke-linecap:round;stroke-linejoin:round"></rect><rect x="165.78" y="91.57" width="182.46" height="295.2" style="fill:#fff;stroke:#263238;stroke-linecap:round;stroke-linejoin:round"></rect><path d="M276.84,70.91H237.17a2.7,2.7,0,0,1-2.7-2.7h0a2.7,2.7,0,0,1,2.7-2.71h39.67a2.7,2.7,0,0,1,2.7,2.71h0A2.7,2.7,0,0,1,276.84,70.91Z" style="fill:#fff"></path><path d="M267.82,403.44A10.82,10.82,0,1,0,257,414.26,10.81,10.81,0,0,0,267.82,403.44Z" style="fill:#fff;stroke:#263238;stroke-linecap:round;stroke-linejoin:round;stroke-width:0.704333px"></path><rect x="251.52" y="397.95" width="10.97" height="10.97" style="fill:#263238"></rect></g><g id="freepik--Icons--inject-3"><circle cx="254" cy="149" r="42" style="fill:#FF521C"></circle><polygon points="279.64 129.99 229.86 129.99 254.4 153.65 279.64 129.99" style="fill:#263238"></polygon><polygon points="264.37 148.41 281.7 163.73 281.7 132.17 264.37 148.41" style="fill:#263238"></polygon><polygon points="244.62 148.38 227.06 131.46 227.06 163.01 244.62 148.38" style="fill:#263238"></polygon><polygon points="262.17 150.47 254.37 157.78 246.79 150.48 228.52 165.7 279.4 165.7 262.17 150.47" style="fill:#263238"></polygon><circle cx="254" cy="241" r="42" style="fill:#FF521C"></circle><path d="M248.39,227.75a1.86,1.86,0,0,0,2.67.71c1.37-.75,2.74-1.5,4-2.37a5.34,5.34,0,0,0,1.1-1.49c-.25-.59-.38-1-.58-1.36-.54-1-1.12-2-1.69-3l-5.79-10a2,2,0,0,0-3.11-.83c-1.24.7-2.47,1.4-3.68,2.14a1.83,1.83,0,0,0-.75,2.64Q244.46,221,248.39,227.75Z" style="fill:#263238"></path><path d="M277.22,260.66q-3.8-6.6-7.62-13.18a1.89,1.89,0,0,0-2.87-.81q-1.91,1.07-3.78,2.19a1.88,1.88,0,0,0-.83,2.64l8.28,14.13a1.85,1.85,0,0,0,2.19.17c1.34-.73,2.69-1.46,4-2.31a6.24,6.24,0,0,0,1.18-1.45A9.66,9.66,0,0,0,277.22,260.66Z" style="fill:#263238"></path><path d="M260.08,252.41a6,6,0,0,1-5-.44,12.62,12.62,0,0,1-2.38-1.58A23.57,23.57,0,0,1,245.31,238c-.73-3-.93-6,1.37-8.4L238.16,215c-.67.43-1.32.84-1.93,1.27a7.94,7.94,0,0,0-3.73,7.34,47.41,47.41,0,0,0,1.29,8.81,69.76,69.76,0,0,0,14.71,27.08,36.76,36.76,0,0,0,9,7.91,9.77,9.77,0,0,0,11.08-.51Z" style="fill:#263238"></path><circle cx="254" cy="333" r="42" style="fill:#FF521C"></circle><path d="M247.81,340.87h-9.33v4.73a5.82,5.82,0,0,0,5.41,5.81Z" style="fill:#263238"></path><path d="M273.82,324.67h-4v8.23a8,8,0,0,1-8,8h-.14L247.4,351.43h15.5l-3.83,10.3L273,351.43h.84a5.84,5.84,0,0,0,5.84-5.83V330.5A5.84,5.84,0,0,0,273.82,324.67Z" style="fill:#263238"></path><path d="M261.81,312H232.3a5.83,5.83,0,0,0-5.83,5.83v15.1a5.84,5.84,0,0,0,5.83,5.84h18.59L247.06,349,261,338.74h.84a5.85,5.85,0,0,0,5.84-5.84V317.8A5.84,5.84,0,0,0,261.81,312Z" style="fill:#263238"></path><circle cx="238.97" cy="324.97" r="2.09" style="fill:#FF521C"></circle><path d="M249.57,325a2.09,2.09,0,1,1-2.09-2.09A2.1,2.1,0,0,1,249.57,325Z" style="fill:#FF521C"></path><path d="M258.07,325a2.09,2.09,0,1,1-2.08-2.09A2.09,2.09,0,0,1,258.07,325Z" style="fill:#FF521C"></path></g><g id="freepik--character-1--inject-3"><path d="M153.17,210.61l.76-1,12.39-16.88s1.68-10.07,2.52-12.59,2.52-7.83,3.08-9.79,1.12-4.2,2.24-3.36,1.12,4.2.56,5.88a9.53,9.53,0,0,0-.28,4.75c.28.84,15.11-11.75,16.5-10.63s-.55,6.44-3.35,10.07-14.27,16.79-14.27,16.79-13.15,35.25-17.07,40.85-4.75,3.08-8.67,0-9-10.07-9-10.07Z" style="fill:#fff;stroke:#263238;stroke-linecap:round;stroke-linejoin:round"></path><path d="M173.6,187.11s1.4-5,2.8-6.16,6.71-4.47,6.71-4.47l3.64-11.2s1.12-.84.84,1.68-.84,8.12-1.68,10.63-4.48,7-4.48,7" style="fill:#fff;stroke:#263238;stroke-linecap:round;stroke-linejoin:round"></path><polygon points="133.03 167.8 154.57 210.05 138.07 226.84 133.31 210.89 133.03 167.8" style="fill:#FF521C;stroke:#263238;stroke-linecap:round;stroke-linejoin:round"></polygon><polygon points="136.09 220.22 138.07 226.84 154.57 210.05 151.6 204.23 136.09 220.22" style="fill:#263238;stroke:#263238;stroke-miterlimit:10"></polygon><path d="M81.38,446l-2,7.93s-11.73,6.5-12.63,7.4-.55,4.69-.55,4.69H99.78a30.79,30.79,0,0,0-.72-8.66,95.2,95.2,0,0,1-.93-10.61Z" style="fill:#263238;stroke:#263238;stroke-linecap:round;stroke-linejoin:round"></path><path d="M66.21,466H99.78a20.14,20.14,0,0,0,0-2.17H66.15C66.12,465,66.21,466,66.21,466Z" style="fill:#fff;stroke:#263238;stroke-linecap:round;stroke-linejoin:round"></path><path d="M67.48,461a15.62,15.62,0,0,1,8.12-3.61c5.41-.91,10.29,1.08,11.37,2.16s1.8,4.15,1.8,4.15l-22.62.18A1.89,1.89,0,0,1,67.48,461Z" style="fill:#fff;stroke:#263238;stroke-linecap:round;stroke-linejoin:round"></path><path d="M96.35,452.37c0,1.95-.68,3.52-1.53,3.52s-1.54-1.57-1.54-3.52.69-3.52,1.54-3.52S96.35,450.43,96.35,452.37Z" style="fill:#fff;stroke:#263238;stroke-linecap:round;stroke-linejoin:round"></path><path d="M165.18,446l2,7.93s11.73,6.5,12.63,7.4.54,4.69.54,4.69H146.78a30.34,30.34,0,0,1,.72-8.66,97,97,0,0,0,.92-10.61Z" style="fill:#263238;stroke:#263238;stroke-linecap:round;stroke-linejoin:round"></path><path d="M180.34,466H146.78a21.47,21.47,0,0,1-.06-2.17h33.69A20.08,20.08,0,0,1,180.34,466Z" style="fill:#fff;stroke:#263238;stroke-linecap:round;stroke-linejoin:round"></path><path d="M179.08,461a15.68,15.68,0,0,0-8.12-3.61c-5.41-.91-10.29,1.08-11.37,2.16s-1.81,4.15-1.81,4.15l22.63.18A1.89,1.89,0,0,0,179.08,461Z" style="fill:#fff;stroke:#263238;stroke-linecap:round;stroke-linejoin:round"></path><path d="M150.2,452.37c0,1.95.69,3.52,1.54,3.52s1.53-1.57,1.53-3.52-.68-3.52-1.53-3.52S150.2,450.43,150.2,452.37Z" style="fill:#fff;stroke:#263238;stroke-linecap:round;stroke-linejoin:round"></path><polygon points="81 277.66 79.89 295.16 81.38 445.98 98.13 446.73 114.89 307.45 117.13 306.7 148.42 446.73 165.18 445.98 157.72 352.14 146.46 271.6 81 277.66" style="fill:#fff;stroke:#263238;stroke-linecap:round;stroke-linejoin:round"></polygon><polyline points="116.36 282.41 116.36 295.18 119.84 289.38 120.43 280.67" style="fill:none;stroke:gray;stroke-linecap:round;stroke-linejoin:round"></polyline><path d="M92.46,165.84S54.69,182.35,54.13,184s-10.63,43.37-9,47.28a9.56,9.56,0,0,0,12,5c5.31-2,10.35-22.38,10.35-22.38s11.75,35.81,11.75,39.45,1.12,26,1.12,26,21.54,3.07,39.45-1.12,26.58-6.72,26.58-6.72l-8.39-51.2s-4.48-50.64-5-52.6-32.46-2.52-35-2.24S92.46,165.84,92.46,165.84Z" style="fill:#FF521C;stroke:#263238;stroke-linecap:round;stroke-linejoin:round"></path><path d="M63.81,226a26,26,0,0,0-6.67-10.89c-3.12-2.77-7.27-1.2-10.11.52-1.5,7.77-2.47,14.3-1.85,15.73a9.56,9.56,0,0,0,12,5C59.61,235.46,62,230.8,63.81,226Z" style="fill:#263238;stroke:#263238;stroke-miterlimit:10"></path><path d="M74.87,237l63.71-13.39-.51-3.16s-.1-1-.25-2.81l-64.74,13.6C73.68,233.1,74.28,235,74.87,237Z" style="fill:#263238"></path><path d="M146.46,271.6l-6.29-38.34-62.55,13a45.48,45.48,0,0,1,1.69,7.2c0,3.63,1.12,26,1.12,26s21.54,3.07,39.45-1.12S146.46,271.6,146.46,271.6Z" style="fill:#263238;stroke:#263238;stroke-miterlimit:10"></path><path d="M98.06,165.56c-2.52.28-5.6.28-5.6.28s-7.08,3.1-15.16,6.75L110,206.35s7-33.67,6.38-36.57a30.31,30.31,0,0,0-1.16-4C107.19,165.49,99.26,165.43,98.06,165.56Z" style="fill:#263238;stroke:#263238;stroke-miterlimit:10"></path><path d="M108.69,156.05s1.68,14.55,2.52,17.35-4.76,22.38-4.76,22.38-16.23-16.51-18.19-21.26-6.43-21.27-6.43-21.27S96.1,160.53,108.69,156.05Z" style="fill:#fff;stroke:#263238;stroke-linecap:round;stroke-linejoin:round"></path><path d="M81.83,153.25s1,3.77,2.3,8.22c.68.38,1.5.81,2.5,1.31a28.68,28.68,0,0,0,17,3.11,7.91,7.91,0,0,0,5.76-4.2c-.4-3.13-.69-5.64-.69-5.64C96.1,160.53,81.83,153.25,81.83,153.25Z" style="fill:#263238;stroke:#263238;stroke-linecap:round;stroke-linejoin:round"></path><path d="M101.5,119.33s4.24,8.49,7.08,12.17,7.36,11.9,5.38,16.71-3.28,13-9.63,13.88a28.76,28.76,0,0,1-17-3.12c-5.1-2.55-5.66-3.4-5.66-3.4s-4.25,0-6.8-2-7.64-8.21-6.23-13.59,4.82-5.95,4.82-5.95-7.08-2.83-2.55-9.91,14.15-9.62,18.69-9.62S101.5,119.33,101.5,119.33Z" style="fill:#fff;stroke:#263238;stroke-linecap:round;stroke-linejoin:round"></path><path d="M100.08,128.67a8.21,8.21,0,0,0,2.55,2.55c2,1.42,4.81.57,4,3.12s-2.83,3.39-4.53,3.11" style="fill:none;stroke:#263238;stroke-linecap:round;stroke-linejoin:round"></path><path d="M106.88,140.57s-5.38,3.11-9.06,2.83a10.08,10.08,0,0,1-5.38-1.7" style="fill:none;stroke:#263238;stroke-linecap:round;stroke-linejoin:round"></path><path d="M95,143.4s2,7.08,4.81,4.81a10.45,10.45,0,0,0,3.4-6A18.57,18.57,0,0,1,95,143.4Z" style="fill:#263238;stroke:#263238;stroke-linecap:round;stroke-linejoin:round"></path><path d="M94.71,131.13c.62,1,.64,2.09,0,2.47s-1.6-.1-2.23-1.08-.64-2.09,0-2.48S94.08,130.14,94.71,131.13Z" style="fill:#263238"></path><path d="M103.75,126.85c.62,1,.64,2.1,0,2.48s-1.6-.1-2.23-1.09-.64-2.09,0-2.47S103.12,125.87,103.75,126.85Z" style="fill:#263238"></path><path d="M88.77,130.28s.82-3.78,3.78-4.28" style="fill:none;stroke:#263238;stroke-linecap:round;stroke-linejoin:round"></path><path d="M98.47,124.36s1.65-3.12,4.28-1.81" style="fill:none;stroke:#263238;stroke-linecap:round;stroke-linejoin:round"></path><path d="M74.31,128.11s18.41,0,19.83-3.12-2.84-5.38-2.84-5.38,15.86.57,17.56-4.25-5.66-6.79-7.93-6.79h-3.4s-.85-7.08-9.06-5.38-24.07,12.46-26,18.69-6.51,8.21-3.11,15.57,12.74,13.31,12.74,13.31-1.42-5.38,1.42-5.66,7.64,1.69,8.49,1.69,3.4-2.26,2-3.68-2.83-2.26-3.11-3.11,1.41-3.68.28-6.23S74.31,128.11,74.31,128.11Z" style="fill:#263238;stroke:#263238;stroke-linecap:round;stroke-linejoin:round"></path><rect x="72.78" y="138.24" width="12.5" height="27.98" rx="2.31" transform="translate(-71.05 69.2) rotate(-33.61)" style="fill:#FF521C;stroke:#263238;stroke-miterlimit:10"></rect><path d="M70.92,162.11s-1.31-3.35-2.61-5.78-1.31-3.54-.38-3.54A5.15,5.15,0,0,1,72,156.7a19.73,19.73,0,0,1,.37,6.16Z" style="fill:#fff;stroke:#263238;stroke-miterlimit:10"></path><path d="M82.11,175s-10.63-10.63-11-11.56.05-13,.16-16.47a1.11,1.11,0,0,1,.9-1h0a1.1,1.1,0,0,1,1.28,1l.84,9.8,2.43-12.36a1.09,1.09,0,0,1,1.08-.88h0a1.1,1.1,0,0,1,1.09,1.15l-.69,13.77,3.07-11.75a1.13,1.13,0,0,1,1.4-.81h0A1.14,1.14,0,0,1,83.5,147l-1.39,12.65,2.61,2.24v-4.48l3.13-5.26a.87.87,0,0,1,1.15-.34h0a.89.89,0,0,1,.41,1.15l-2.08,4.64s4.11,16.78,4.29,17.34-.74,3.55-1.3,4.67-25.56,54.09-27,56.14-11.56,5.22-16,.37-3-9.7-.56-15.29S82.11,175,82.11,175Z" style="fill:#fff;stroke:#263238;stroke-miterlimit:10"></path><line x1="85.84" y1="288.46" x2="100" y2="296.65" style="fill:none;stroke:gray;stroke-linecap:round;stroke-linejoin:round"></line><line x1="143.19" y1="282.87" x2="134.63" y2="294.04" style="fill:none;stroke:gray;stroke-linecap:round;stroke-linejoin:round"></line></g><g id="freepik--Floor--inject-3"><line x1="30" y1="466" x2="477" y2="466" style="fill:none;stroke:#263238;stroke-linecap:round;stroke-linejoin:round"></line></g></svg>